<svg width="40" height="40" viewBox="0 0 40 40" fill="none" xmlns="http://www.w3.org/2000/svg">
<path d="M3.33331 12.0834C3.33331 10.6468 3.904 9.26901 4.91982 8.25319C5.93564 7.23737 7.31339 6.66669 8.74998 6.66669H31.25C31.9613 6.66669 32.6657 6.80679 33.3228 7.07901C33.98 7.35122 34.5772 7.75021 35.0801 8.25319C35.5831 8.75618 35.9821 9.35331 36.2543 10.0105C36.5265 10.6677 36.6666 11.372 36.6666 12.0834V12.5H3.33331V12.0834ZM3.33331 15V24.5834C3.33331 26.0199 3.904 27.3977 4.91982 28.4135C5.93564 29.4293 7.31339 30 8.74998 30H18.3333V27.5C18.3331 26.5395 18.6648 25.6084 19.2722 24.8643C19.8797 24.1202 20.7255 23.6088 21.6666 23.4167V23.3334C21.6666 22.1178 22.1495 20.952 23.0091 20.0924C23.8686 19.2329 25.0344 18.75 26.25 18.75H32.0833C33.2954 18.75 34.4582 19.2301 35.3172 20.0854C36.1761 20.9406 36.6614 22.1012 36.6666 23.3134V15H3.33331ZM23.3333 25H22.5C21.8369 25 21.2011 25.2634 20.7322 25.7323C20.2634 26.2011 20 26.837 20 27.5V30H24.1666V29.5834C24.1666 29.2518 24.2983 28.9339 24.5328 28.6995C24.7672 28.465 25.0851 28.3334 25.4166 28.3334C25.7482 28.3334 26.0661 28.465 26.3005 28.6995C26.5349 28.9339 26.6666 29.2518 26.6666 29.5834V30H31.6666V29.5834C31.6666 29.2518 31.7983 28.9339 32.0328 28.6995C32.2672 28.465 32.5851 28.3334 32.9166 28.3334C33.2482 28.3334 33.5661 28.465 33.8005 28.6995C34.035 28.9339 34.1666 29.2518 34.1666 29.5834V30H38.3333V27.5C38.3333 26.837 38.0699 26.2011 37.6011 25.7323C37.1322 25.2634 36.4964 25 35.8333 25H35V23.3334C35 22.5598 34.6927 21.8179 34.1457 21.271C33.5987 20.724 32.8569 20.4167 32.0833 20.4167H26.25C25.4764 20.4167 24.7346 20.724 24.1876 21.271C23.6406 21.8179 23.3333 22.5598 23.3333 23.3334V25ZM25.8333 23.3334C25.8333 23.2228 25.8772 23.1169 25.9554 23.0387C26.0335 22.9606 26.1395 22.9167 26.25 22.9167H32.0833C32.1938 22.9167 32.2998 22.9606 32.3779 23.0387C32.4561 23.1169 32.5 23.2228 32.5 23.3334V25H25.8333V23.3334ZM20 35.8334V32.5H24.1666V33.75C24.1666 34.0815 24.2983 34.3995 24.5328 34.6339C24.7672 34.8683 25.0851 35 25.4166 35C25.7482 35 26.0661 34.8683 26.3005 34.6339C26.5349 34.3995 26.6666 34.0815 26.6666 33.75V32.5H31.6666V33.75C31.6666 34.0815 31.7983 34.3995 32.0328 34.6339C32.2672 34.8683 32.5851 35 32.9166 35C33.2482 35 33.5661 34.8683 33.8005 34.6339C34.035 34.3995 34.1666 34.0815 34.1666 33.75V32.5H38.3333V35.8334C38.3333 36.4964 38.0699 37.1323 37.6011 37.6011C37.1322 38.07 36.4964 38.3334 35.8333 38.3334H22.5C21.8369 38.3334 21.2011 38.07 20.7322 37.6011C20.2634 37.1323 20 36.4964 20 35.8334Z" fill="#23233D"/>
</svg>
