<svg width="35" height="35" viewBox="0 0 35 35" fill="none" xmlns="http://www.w3.org/2000/svg">
<g clip-path="url(#clip0_35_9)">
<path d="M16.3319 0C18.1882 0 19.9685 0.737424 21.2812 2.05005C22.5938 3.36267 23.3312 5.14297 23.3312 6.9993V10.499H27.7058C28.4019 10.499 29.0695 10.7755 29.5617 11.2677C30.054 11.76 30.3305 12.4276 30.3305 13.1237V15.7484C29.7723 15.7484 29.2159 15.9409 28.7627 16.3241L28.5754 16.4991C27.1546 17.9777 25.6777 18.6654 24.0311 18.6654C22.661 18.6654 21.5814 19.7905 21.5814 21.1431V25.5194C21.5814 29.6735 23.1982 32.9037 26.2709 35L4.95805 34.9965C4.26193 34.9965 3.59431 34.72 3.10208 34.2277C2.60985 33.7355 2.33331 33.0679 2.33331 32.3718V13.1237C2.33331 12.4276 2.60985 11.76 3.10208 11.2677C3.59431 10.7755 4.26193 10.499 4.95805 10.499H9.33261V6.9993C9.33261 5.14297 10.07 3.36267 11.3827 2.05005C12.6953 0.737424 14.4756 0 16.3319 0V0ZM30.8275 17.7117C32.5633 19.5245 34.4864 20.4152 36.6299 20.4152C36.9676 20.4152 37.2511 20.6654 37.3158 20.9961L37.3298 21.1431V25.5194C37.3298 30.2125 35.0323 33.4042 30.5527 34.9598C30.4094 35.0096 30.2534 35.0096 30.11 34.9598C25.7775 33.4549 23.4869 30.4242 23.3382 25.9832L23.3312 25.5212V21.1466C23.3312 20.7442 23.6462 20.417 24.0311 20.417C26.1712 20.417 28.096 19.5245 29.8371 17.7135C29.9007 17.646 29.9774 17.5923 30.0626 17.5555C30.1478 17.5188 30.2395 17.4998 30.3323 17.4998C30.425 17.4998 30.5168 17.5188 30.6019 17.5555C30.6871 17.5923 30.7638 17.646 30.8275 17.7135V17.7117ZM16.3319 20.123C15.6358 20.123 14.9682 20.3995 14.4759 20.8918C13.9837 21.384 13.7072 22.0516 13.7072 22.7477C13.7072 23.4438 13.9837 24.1115 14.4759 24.6037C14.9682 25.0959 15.6358 25.3725 16.3319 25.3725C17.028 25.3725 17.6957 25.0959 18.1879 24.6037C18.6801 24.1115 18.9567 23.4438 18.9567 22.7477C18.9567 22.0516 18.6801 21.384 18.1879 20.8918C17.6957 20.3995 17.028 20.123 16.3319 20.123ZM16.3319 3.49965C15.4037 3.49965 14.5136 3.86836 13.8573 4.52467C13.201 5.18099 12.8323 6.07114 12.8323 6.9993V10.499H19.8316V6.9993C19.8316 6.07114 19.4629 5.18099 18.8065 4.52467C18.1502 3.86836 17.2601 3.49965 16.3319 3.49965V3.49965Z" fill="#23233D"/>
</g>
<defs>
<clipPath id="clip0_35_9">
<rect width="35" height="35" fill="white"/>
</clipPath>
</defs>
</svg>
