<svg width="45" height="45" viewBox="0 0 45 45" fill="none" xmlns="http://www.w3.org/2000/svg">
<path d="M16.4063 3.75C16.0333 3.75 15.6756 3.89816 15.4119 4.16188C15.1482 4.4256 15 4.78329 15 5.15625V9.375H10.7813C10.4083 9.375 10.0506 9.52316 9.78689 9.78688C9.52317 10.0506 9.37501 10.4083 9.37501 10.7812V19.7137L6.63751 20.7169C6.45472 20.7837 6.28778 20.8877 6.14726 21.0223C6.00674 21.1569 5.89569 21.3193 5.82114 21.499C5.74659 21.6788 5.71016 21.8721 5.71416 22.0666C5.71817 22.2612 5.76251 22.4528 5.84439 22.6294L10.2225 32.04C10.6364 31.9031 11.0734 31.8501 11.508 31.884C11.9426 31.918 12.3661 32.0383 12.7536 32.2378C13.1412 32.4374 13.4851 32.7122 13.7652 33.0462C14.0453 33.3802 14.256 33.7667 14.385 34.1831C14.385 34.1906 14.3925 34.2075 14.4019 34.2337C14.5748 34.6968 14.8115 35.1335 15.105 35.5313C15.6225 36.2194 16.1625 36.5625 16.875 36.5625C17.5875 36.5625 18.1275 36.2213 18.6431 35.5313C18.9468 35.1195 19.1893 34.6661 19.3631 34.185C19.5701 33.5163 19.9854 32.9313 20.5485 32.5155C21.1116 32.0997 21.7928 31.8748 22.4928 31.8738C23.1928 31.8728 23.8747 32.0956 24.4391 32.5097C25.0034 32.9238 25.4205 33.5076 25.6294 34.1756L25.6481 34.2281C25.8229 34.6926 26.0615 35.1306 26.3569 35.5294C26.8763 36.2231 27.4181 36.5625 28.125 36.5625C28.8319 36.5625 29.3719 36.2213 29.8931 35.5313C30.198 35.1177 30.4417 34.6624 30.6169 34.1794C30.7503 33.7517 30.9699 33.3559 31.2621 33.0164C31.5543 32.6768 31.9129 32.4007 32.3159 32.205C32.7189 32.0093 33.1576 31.8982 33.6052 31.8785C34.0527 31.8589 34.4996 31.931 34.9181 32.0906L39.5456 22.6575C39.633 22.4797 39.6818 22.2854 39.6888 22.0874C39.6958 21.8894 39.6609 21.6921 39.5864 21.5085C39.5119 21.3249 39.3994 21.1592 39.2563 21.0221C39.1133 20.885 38.9429 20.7797 38.7563 20.7131L35.625 19.5956V10.7812C35.625 10.4083 35.4769 10.0506 35.2131 9.78688C34.9494 9.52316 34.5917 9.375 34.2188 9.375H30V5.15625C30 4.78329 29.8519 4.4256 29.5881 4.16188C29.3244 3.89816 28.9667 3.75 28.5938 3.75H16.4063ZM27.1875 9.375H17.8125V6.5625H27.1875V9.375ZM32.8125 12.1875V18.5925L24.5681 15.6506C23.2271 15.1726 21.761 15.1793 20.4244 15.6694L12.1875 18.6825V12.1875H32.8125Z" fill="#23233D"/>
<path d="M35.1131 34.8075L35.1075 34.7887C35.0276 34.4944 34.8543 34.2341 34.6135 34.0469C34.3728 33.8597 34.0777 33.7559 33.7728 33.751C33.4679 33.7461 33.1696 33.8405 32.923 34.0199C32.6764 34.1993 32.4948 34.454 32.4056 34.7456V34.7494L32.3981 34.7662L32.3606 34.875C32.1228 35.5114 31.7965 36.111 31.3913 36.6562C30.6656 37.6219 29.6306 38.4375 28.125 38.4375C26.6194 38.4375 25.5825 37.6219 24.8569 36.6562C24.4284 36.0793 24.0884 35.4417 23.8481 34.7644L23.8425 34.7475C23.7545 34.4592 23.5762 34.2067 23.3339 34.0274C23.0915 33.8481 22.798 33.7515 22.4965 33.7517C22.195 33.7519 21.9016 33.849 21.6595 34.0286C21.4174 34.2082 21.2395 34.4609 21.1519 34.7494V34.7512L21.1444 34.77C21.081 34.9545 21.009 35.1359 20.9287 35.3137C20.7619 35.685 20.5031 36.1762 20.1412 36.6562C19.4194 37.6219 18.3862 38.4375 16.875 38.4375C15.3638 38.4375 14.3287 37.6219 13.605 36.6562C13.1784 36.0804 12.8403 35.444 12.6019 34.7681L12.5962 34.7475C12.5076 34.4557 12.3265 34.2007 12.0803 34.0208C11.8341 33.8409 11.5361 33.7459 11.2312 33.7502C10.9263 33.7544 10.6311 33.8576 10.3899 34.0443C10.1488 34.2309 9.97488 34.4909 9.89437 34.785L9.88875 34.8019L9.855 34.9031C9.63432 35.5261 9.31528 36.1098 8.91 36.6319C8.19 37.5506 7.0425 38.4375 5.15625 38.4375C4.78329 38.4375 4.4256 38.5857 4.16188 38.8494C3.89816 39.1131 3.75 39.4708 3.75 39.8437C3.75 40.2167 3.89816 40.5744 4.16188 40.8381C4.4256 41.1018 4.78329 41.25 5.15625 41.25C8.1075 41.25 10.0069 39.7931 11.1244 38.3681L11.25 38.2012L11.355 38.3437C12.39 39.7219 14.1675 41.25 16.875 41.25C19.5825 41.25 21.36 39.7219 22.3931 38.3437L22.5 38.1975L22.6087 38.3456C23.6437 39.7219 25.4212 41.25 28.125 41.25C30.8288 41.25 32.6062 39.7219 33.6412 38.3437L33.7444 38.2031C33.7837 38.2594 33.825 38.3119 33.8681 38.3662C34.9837 39.7931 36.8869 41.25 39.8438 41.25C40.2167 41.25 40.5744 41.1018 40.8381 40.8381C41.1018 40.5744 41.25 40.2167 41.25 39.8437C41.25 39.4708 41.1018 39.1131 40.8381 38.8494C40.5744 38.5857 40.2167 38.4375 39.8438 38.4375C37.9463 38.4375 36.8006 37.5506 36.0844 36.6337C35.6594 36.0845 35.331 35.4669 35.1131 34.8075Z" fill="#23233D"/>
</svg>
