<svg width="25" height="21" viewBox="0 0 25 21" fill="none" xmlns="http://www.w3.org/2000/svg">
<path d="M21.0678 0.702584L21.4285 1.04889C21.7678 0.695483 22.2206 0.50136 22.6875 0.500007C23.1543 0.498654 23.608 0.690138 23.9491 1.04148C24.291 1.39364 24.4914 1.87799 24.4997 2.39116C24.5081 2.90436 24.3235 3.39608 23.9927 3.76081L23.9783 3.77671L23.9653 3.79379L11.6945 19.9083C11.5301 20.0906 11.3345 20.2357 11.1195 20.3366C10.8995 20.4398 10.6629 20.495 10.4239 20.4997C10.1848 20.5043 9.94663 20.4584 9.72339 20.3639C9.50025 20.2695 9.29576 20.1281 9.12281 19.9468L21.0678 0.702584ZM21.0678 0.702584L21.4245 1.05296C21.4178 1.05984 21.4113 1.06727 21.4051 1.07523C21.4048 1.07566 21.4045 1.07609 21.4042 1.07652L10.7211 15.3767L10.3666 15.8513L9.95828 15.4221L3.525 8.66009C3.18151 8.32684 2.73384 8.14977 2.27617 8.15825C1.81578 8.16679 1.37133 8.36263 1.03805 8.71277C0.704041 9.06368 0.508787 9.54193 0.500289 10.048C0.491838 10.5512 0.668875 11.0342 0.987956 11.3971L9.12243 19.9464L21.0678 0.702584Z" stroke="black"/>
</svg>
